<?xml version="1.0" standalone="no"?>
<!DOCTYPE svg PUBLIC "-//W3C//DTD SVG 20010904//EN"
 "http://www.w3.org/TR/2001/REC-SVG-20010904/DTD/svg10.dtd">
<svg version="1.0" xmlns="http://www.w3.org/2000/svg"
 width="200.000000pt" height="200.000000pt" viewBox="0 0 200.000000 200.000000"
 preserveAspectRatio="xMidYMid meet">

<g transform="translate(0.000000,200.000000) scale(0.100000,-0.100000)"
fill="#000000" stroke="none">
<path d="M737 1863 c-4 -3 -7 -17 -7 -30 0 -19 -5 -23 -30 -23 -34 0 -53 -25
-39 -52 6 -11 21 -18 39 -18 25 0 30 -4 30 -25 0 -33 33 -51 54 -29 9 8 16 24
16 34 0 13 8 20 28 22 23 3 27 8 27 33 0 25 -4 31 -26 33 -21 2 -28 10 -33 33
-4 22 -11 29 -29 29 -13 0 -27 -3 -30 -7z"/>
<path d="M1656 1658 c-9 -12 -16 -28 -16 -35 0 -6 -12 -13 -26 -15 -54 -6 -54
-68 0 -68 15 0 25 -9 33 -30 15 -41 51 -41 66 0 8 20 19 30 37 32 21 2 25 8
25 33 0 25 -5 31 -25 33 -17 2 -30 14 -40 35 -19 40 -34 44 -54 15z"/>
<path d="M511 1486 c-9 -10 -8 -74 4 -266 15 -235 15 -253 0 -264 -14 -10 -16
-27 -14 -107 4 -86 7 -101 34 -144 38 -61 82 -84 182 -96 151 -19 149 -17 128
-158 -22 -145 -20 -201 8 -242 38 -56 81 -79 149 -79 70 0 120 21 149 61 37
53 40 84 22 233 l-18 138 22 18 c14 11 49 20 90 24 135 14 189 43 224 121 24
53 27 210 4 235 -14 15 -13 43 1 263 14 200 15 249 4 262 -16 19 -162 22 -177
3 -6 -7 -16 -38 -23 -68 l-13 -55 -31 65 -32 65 -350 3 c-292 2 -353 0 -363
-12z m94 -68 c3 -7 10 -96 17 -197 14 -194 20 -214 63 -197 17 6 17 17 11 132
-3 69 -9 159 -13 200 -5 64 -4 74 10 74 20 0 23 -22 35 -196 5 -73 13 -137 16
-143 10 -15 41 -14 54 2 7 8 6 62 -2 170 -11 147 -7 183 14 161 5 -5 14 -70
20 -144 12 -144 24 -175 58 -154 20 13 21 53 9 207 l-8 97 144 0 144 0 51
-105 c69 -142 88 -141 124 5 23 94 23 95 56 98 17 2 32 0 32 -5 0 -4 -7 -100
-15 -213 -8 -113 -15 -213 -15 -222 0 -17 -26 -18 -405 -18 l-405 0 -1 33 c0
17 -6 118 -13 222 -7 105 -11 193 -9 198 6 11 23 8 28 -5z m835 -587 c0 -44
-6 -66 -23 -92 -26 -39 -60 -51 -182 -67 -73 -9 -82 -13 -112 -46 -39 -42 -41
-71 -18 -235 13 -92 13 -107 -1 -136 -29 -62 -124 -76 -175 -26 -35 35 -36 58
-13 217 15 105 15 114 -2 149 -24 52 -54 67 -161 82 -51 7 -106 19 -122 27
-37 20 -61 72 -61 135 l0 51 435 0 435 0 0 -59z"/>
<path d="M960 350 c-11 -11 -20 -31 -20 -45 0 -57 83 -88 114 -43 49 69 -35
147 -94 88z"/>
<path d="M287 1293 c-4 -3 -7 -15 -7 -25 0 -13 -7 -18 -25 -18 -47 0 -44 -61
3 -68 12 -2 22 -12 24 -25 4 -30 49 -30 63 0 5 12 19 23 30 25 30 4 29 62 -2
66 -13 2 -24 13 -27 28 -5 17 -13 24 -30 24 -12 0 -26 -3 -29 -7z"/>
</g>
</svg>
