<svg aria-hidden="true" style="position: absolute; width: 0; height: 0; overflow: hidden;" version="1.1" xmlns="http://www.w3.org/2000/svg" xmlns:xlink="http://www.w3.org/1999/xlink">
<defs>
<symbol id="burger-menu-navigation" viewBox="0 0 32 32">
<path d="M27.429 24c0 0.631-0.512 1.143-1.143 1.143h-21.714c-0.631 0-1.143-0.512-1.143-1.143s0.512-1.143 1.143-1.143h21.714c0.631 0 1.143 0.512 1.143 1.143z"></path>
<path d="M27.429 16c0 0.631-0.512 1.143-1.143 1.143l-12.571-0c-0.631 0-1.143-0.512-1.143-1.143s0.512-1.143 1.143-1.143l12.571 0c0.631 0 1.143 0.512 1.143 1.143z"></path>
<path d="M26.286 9.143c0.631 0 1.143-0.512 1.143-1.143s-0.512-1.143-1.143-1.143h-19.429c-0.631 0-1.143 0.512-1.143 1.143s0.512 1.143 1.143 1.143h19.429z"></path>
</symbol>
<symbol id="eye-on" viewBox="0 0 32 32">
<path d="M14.905 5.575c-3.883 0.356-8.59 3.641-12.402 8.69l-1.266 1.664 0.668 0.996c1.792 2.617 4.736 5.575 7.14 7.196 4.622 3.086 9.060 3.143 13.668 0.171 2.261-1.479 4.907-4.039 6.898-6.713 1.237-1.664 1.223-1.465 0.313-2.745-1.223-1.692-2.972-3.655-4.366-4.892-3.826-3.385-7.026-4.693-10.652-4.366zM18.773 7.253c3.228 1.095 6.841 4.011 9.728 7.879l0.64 0.853-0.299 0.427c-1.835 2.645-5.319 5.931-7.751 7.296-2.347 1.308-4.921 1.764-7.083 1.266-1.337-0.327-3.3-1.28-4.821-2.375-1.906-1.365-4.58-4.11-6.016-6.187l-0.313-0.427 0.597-0.796c3.129-4.181 6.912-7.14 10.311-8.092 1.294-0.37 3.684-0.284 5.006 0.156z"></path>
<path d="M14.492 10.923c-1.593 0.54-2.816 1.707-3.399 3.271-0.455 1.195-0.37 3.058 0.185 4.181s1.479 2.034 2.631 2.574c0.853 0.398 1.095 0.455 2.233 0.455s1.38-0.057 2.233-0.455c1.152-0.54 2.076-1.451 2.631-2.574 0.356-0.725 0.398-0.953 0.398-2.304s-0.043-1.579-0.398-2.304c-1.18-2.404-4.039-3.655-6.514-2.844zM17.707 12.302c1.394 0.583 2.489 2.247 2.489 3.755 0 2.844-3.044 4.878-5.618 3.726-1.479-0.654-2.347-1.877-2.46-3.47-0.213-2.987 2.816-5.163 5.589-4.011z"></path>
</symbol>
<symbol id="heart" viewBox="0 0 38 32">
<path stroke-linejoin="round" stroke-linecap="round" stroke-miterlimit="4" stroke-width="2.9091" d="M32.839 4.355c-0.805-0.805-1.76-1.444-2.812-1.88s-2.179-0.66-3.318-0.66-2.266 0.224-3.318 0.66c-1.052 0.436-2.007 1.075-2.812 1.88l-1.67 1.67-1.67-1.67c-1.626-1.626-3.831-2.539-6.13-2.539s-4.504 0.913-6.13 2.539c-1.626 1.626-2.539 3.831-2.539 6.13s0.913 4.504 2.539 6.13l13.93 13.93 13.93-13.93c0.805-0.805 1.444-1.76 1.88-2.812s0.66-2.179 0.66-3.318-0.224-2.266-0.66-3.318c-0.436-1.052-1.075-2.007-1.88-2.812z"></path>
</symbol>
<symbol id="log-in" viewBox="0 0 32 32">
<path fill="none" stroke-linejoin="round" stroke-linecap="round" stroke-miterlimit="4" stroke-width="3.2" d="M20 4h1.6c2.24 0 3.36 0 4.216 0.436 0.753 0.383 1.364 0.995 1.748 1.748 0.436 0.856 0.436 1.976 0.436 4.216v11.2c0 2.24 0 3.36-0.436 4.216-0.384 0.753-0.995 1.364-1.748 1.748-0.856 0.436-1.976 0.436-4.216 0.436h-1.6"></path>
<path fill="none" stroke-linejoin="round" stroke-linecap="round" stroke-miterlimit="4" stroke-width="3.2" d="M13.333 9.333l6.667 6.667M20 16l-6.667 6.667M20 16h-16"></path>
</symbol>
<symbol id="eye-off" viewBox="0 0 32 32">
<path stroke-linejoin="round" stroke-linecap="round" stroke-miterlimit="4" stroke-width="3.2" d="M23.92 23.92c-2.279 1.737-5.055 2.7-7.92 2.747-9.333 0-14.667-10.667-14.667-10.667 1.659-3.091 3.959-5.791 6.747-7.92M13.2 5.653c0.918-0.215 1.857-0.322 2.8-0.32 9.333 0 14.667 10.667 14.667 10.667-0.809 1.514-1.775 2.94-2.88 4.253M18.827 18.827c-0.366 0.393-0.808 0.708-1.299 0.927s-1.020 0.336-1.557 0.346c-0.537 0.009-1.071-0.089-1.569-0.291s-0.95-0.5-1.33-0.88-0.679-0.832-0.88-1.33c-0.201-0.498-0.3-1.032-0.29-1.569s0.127-1.067 0.346-1.557 0.534-0.932 0.927-1.298"></path>
<path stroke-linejoin="round" stroke-linecap="round" stroke-miterlimit="4" stroke-width="3.2" d="M1.333 1.333l29.333 29.333"></path>
</symbol>
<symbol id="filter" viewBox="0 0 32 32">
<path stroke-linejoin="round" stroke-linecap="round" stroke-miterlimit="4" stroke-width="2.8235" d="M28.549 4.706h-25.098l10.039 11.871v8.207l5.020 2.51v-10.717l10.039-11.871z"></path>
</symbol>
 <symbol id="paint" viewBox="0 0 32 32">
<path d="M11.792 2.192c-0.064 0.048-0.112 0.272-0.112 0.48 0 0.304-0.080 0.368-0.48 0.368-0.544 0-0.848 0.4-0.624 0.832 0.096 0.176 0.336 0.288 0.624 0.288 0.4 0 0.48 0.064 0.48 0.4 0 0.528 0.528 0.816 0.864 0.464 0.144-0.128 0.256-0.384 0.256-0.544 0-0.208 0.128-0.32 0.448-0.352 0.368-0.048 0.432-0.128 0.432-0.528s-0.064-0.496-0.416-0.528c-0.336-0.032-0.448-0.16-0.528-0.528-0.064-0.352-0.176-0.464-0.464-0.464-0.208 0-0.432 0.048-0.48 0.112z"></path>
<path d="M26.496 5.472c-0.144 0.192-0.256 0.448-0.256 0.56 0 0.096-0.192 0.208-0.416 0.24-0.864 0.096-0.864 1.088 0 1.088 0.24 0 0.4 0.144 0.528 0.48 0.24 0.656 0.816 0.656 1.056 0 0.128-0.32 0.304-0.48 0.592-0.512 0.336-0.032 0.4-0.128 0.4-0.528s-0.080-0.496-0.4-0.528c-0.272-0.032-0.48-0.224-0.64-0.56-0.304-0.64-0.544-0.704-0.864-0.24z"></path>
<path d="M8.176 8.224c-0.144 0.16-0.128 1.184 0.064 4.256 0.24 3.76 0.24 4.048 0 4.224-0.224 0.16-0.256 0.432-0.224 1.712 0.064 1.376 0.112 1.616 0.544 2.304 0.608 0.976 1.312 1.344 2.912 1.536 2.416 0.304 2.384 0.272 2.048 2.528-0.352 2.32-0.32 3.216 0.128 3.872 0.608 0.896 1.296 1.264 2.384 1.264 1.12 0 1.92-0.336 2.384-0.976 0.592-0.848 0.64-1.344 0.352-3.728l-0.288-2.208 0.352-0.288c0.224-0.176 0.784-0.32 1.44-0.384 2.16-0.224 3.024-0.688 3.584-1.936 0.384-0.848 0.432-3.36 0.064-3.76-0.224-0.24-0.208-0.688 0.016-4.208 0.224-3.2 0.24-3.984 0.064-4.192-0.256-0.304-2.592-0.352-2.832-0.048-0.096 0.112-0.256 0.608-0.368 1.088l-0.208 0.88-0.496-1.040-0.512-1.040-5.6-0.048c-4.672-0.032-5.648 0-5.808 0.192zM9.68 9.312c0.048 0.112 0.16 1.536 0.272 3.152 0.224 3.104 0.32 3.424 1.008 3.152 0.272-0.096 0.272-0.272 0.176-2.112-0.048-1.104-0.144-2.544-0.208-3.2-0.080-1.024-0.064-1.184 0.16-1.184 0.32 0 0.368 0.352 0.56 3.136 0.080 1.168 0.208 2.192 0.256 2.288 0.16 0.24 0.656 0.224 0.864-0.032 0.112-0.128 0.096-0.992-0.032-2.72-0.176-2.352-0.112-2.928 0.224-2.576 0.080 0.080 0.224 1.12 0.32 2.304 0.192 2.304 0.384 2.8 0.928 2.464 0.32-0.208 0.336-0.848 0.144-3.312l-0.128-1.552h4.608l0.816 1.68c1.104 2.272 1.408 2.256 1.984-0.080 0.368-1.504 0.368-1.52 0.896-1.568 0.272-0.032 0.512 0 0.512 0.080 0 0.064-0.112 1.6-0.24 3.408s-0.24 3.408-0.24 3.552c0 0.272-0.416 0.288-6.48 0.288h-6.48l-0.016-0.528c0-0.272-0.096-1.888-0.208-3.552-0.112-1.68-0.176-3.088-0.144-3.168 0.096-0.176 0.368-0.128 0.448 0.080zM23.040 18.704c0 0.704-0.096 1.056-0.368 1.472-0.416 0.624-0.96 0.816-2.912 1.072-1.168 0.144-1.312 0.208-1.792 0.736-0.624 0.672-0.656 1.136-0.288 3.76 0.208 1.472 0.208 1.712-0.016 2.176-0.464 0.992-1.984 1.216-2.8 0.416-0.56-0.56-0.576-0.928-0.208-3.472 0.24-1.68 0.24-1.824-0.032-2.384-0.384-0.832-0.864-1.072-2.576-1.312-0.816-0.112-1.696-0.304-1.952-0.432-0.592-0.32-0.976-1.152-0.976-2.16v-0.816h13.92v0.944z"></path>
<path d="M15.36 26.4c-0.176 0.176-0.32 0.496-0.32 0.72 0 0.912 1.328 1.408 1.824 0.688 0.784-1.104-0.56-2.352-1.504-1.408z"></path>
<path d="M4.592 11.312c-0.064 0.048-0.112 0.24-0.112 0.4 0 0.208-0.112 0.288-0.4 0.288-0.752 0-0.704 0.976 0.048 1.088 0.192 0.032 0.352 0.192 0.384 0.4 0.064 0.48 0.784 0.48 1.008 0 0.080-0.192 0.304-0.368 0.48-0.4 0.48-0.064 0.464-0.992-0.032-1.056-0.208-0.032-0.384-0.208-0.432-0.448-0.080-0.272-0.208-0.384-0.48-0.384-0.192 0-0.416 0.048-0.464 0.112z"></path>
</symbol>
<symbol id="palette" viewBox="0 0 32 32">
<path d="M11.604 23.046c-0.291 1.431-0.48 2.122-1.584 2.211-0.272 0.022-0.494 0.227-0.536 0.497s0.105 0.533 0.357 0.638c0.071 0.029 1.76 0.719 3.733 0.72 0 0 0.001 0 0.001 0 1.375 0 2.555-0.333 3.506-0.991 1.127-0.779 1.904-1.998 2.318-3.622l-3.797-3.828c-3.209 0.519-3.664 2.736-3.997 4.375z"></path>
<path d="M31.774 6.235c-0.102-0.103-0.284-0.226-0.572-0.226-0.337 0-1.232 0-6.669 4.626-2.511 2.137-5.407 4.781-7.71 7.030l3.604 3.632c2.369-2.462 5.132-5.548 7.33-8.197 1.388-1.672 2.455-3.052 3.172-4.101 0.949-1.389 1.365-2.242 0.846-2.765z"></path>
<path d="M17.976 27.416c-1.22 0.843-2.7 1.27-4.402 1.27-2.24-0-4.127-0.753-4.336-0.839-0.928-0.385-1.467-1.346-1.31-2.338 0.153-0.972 0.932-1.71 1.904-1.816 0.085-0.253 0.178-0.714 0.229-0.961 0.185-0.909 0.438-2.153 1.217-3.261 0.85-1.21 2.132-1.985 3.815-2.31 0.966-0.959 2.068-2.013 3.218-3.082-0.581-0.126-1.101-0.505-1.38-1.077-0.48-0.986-0.061-2.173 0.934-2.648 0.998-0.476 2.194-0.060 2.673 0.928 0.095 0.195 0.153 0.397 0.18 0.6 0.954-0.854 1.901-1.683 2.795-2.444 0.005-0.005 0.010-0.009 0.016-0.013-1.005-1.923-2.446-3.627-4.203-4.932-2.522-1.874-5.524-2.864-8.683-2.865-0.001 0-0.002 0-0.002 0-2.132 0-4.723 0.745-6.763 1.944-2.5 1.47-3.877 3.436-3.877 5.536 0.001 2.535 1.43 3.595 2.579 4.447 0.937 0.695 1.677 1.243 1.677 2.446s-0.739 1.751-1.675 2.445c-1.148 0.851-2.578 1.911-2.577 4.446 0.001 2.099 1.378 4.066 3.88 5.537 2.041 1.201 4.634 1.947 6.766 1.948 0.001 0 0.003 0 0.004 0 3.87 0 7.507-1.494 10.243-4.206 2.051-2.033 3.412-4.57 3.965-7.329-1.374 1.523-2.756 3.002-3.993 4.265-0.525 1.898-1.496 3.347-2.892 4.311zM10.933 7.591c0.246-1.070 1.319-1.738 2.398-1.493 1.077 0.244 1.752 1.308 1.508 2.376-0.246 1.068-1.32 1.736-2.398 1.492-1.078-0.243-1.753-1.307-1.507-2.375zM4.436 11.238c-0.69-0.858-0.548-2.107 0.317-2.79 0.864-0.682 2.124-0.542 2.815 0.315 0.688 0.857 0.546 2.106-0.318 2.79-0.862 0.683-2.124 0.542-2.813-0.315zM5.488 24.334c-0.865-0.684-1.007-1.932-0.318-2.79 0.689-0.856 1.949-0.997 2.814-0.313s1.007 1.932 0.317 2.789c-0.689 0.858-1.949 0.998-2.814 0.315z"></path>
</symbol>
<symbol id="select-menu" viewBox="0 0 30 32">
<path stroke-linejoin="round" stroke-linecap="round" stroke-miterlimit="4" stroke-width="2.8235" d="M7.529 12.235l7.529 7.529 7.529-7.529"></path>
</symbol>
<symbol id="star" viewBox="0 0 32 32">
<path fill="#ffc531" style="fill: var(--color2, #ffc531); stroke: var(--color2, #ffc531)" stroke="#ffc531" stroke-linejoin="miter" stroke-linecap="butt" stroke-miterlimit="4" stroke-width="2.4" d="M12.4 9.394l3.6-6.822 3.6 6.822c0.318 0.603 0.899 1.025 1.571 1.141l7.601 1.315-5.376 5.532c-0.475 0.489-0.697 1.171-0.6 1.846l1.098 7.635-6.922-3.404c-0.612-0.301-1.329-0.301-1.941 0l-6.922 3.404 1.098-7.635c0.097-0.675-0.125-1.357-0.6-1.846l-5.376-5.532 7.601-1.315c0.672-0.116 1.252-0.538 1.571-1.141z"></path>
</symbol>
<symbol id="book-open" viewBox="0 0 32 32">
<path stroke-linejoin="round" stroke-linecap="round" stroke-miterlimit="4" stroke-width="3" d="M29.333 8.267c0-1.493 0-2.24-0.291-2.811-0.256-0.502-0.664-0.91-1.165-1.165-0.571-0.291-1.317-0.291-2.811-0.291h-0.533c-2.987 0-4.48 0-5.621 0.581-1.004 0.511-1.819 1.327-2.331 2.331-0.581 1.141-0.581 2.634-0.581 5.621v15.467l0.133-0.2c0.926-1.389 1.389-2.084 2.001-2.587 0.542-0.445 1.166-0.779 1.837-0.983 0.758-0.23 1.593-0.23 3.262-0.23h1.833c1.494 0 2.24 0 2.811-0.291 0.502-0.256 0.91-0.664 1.165-1.165 0.291-0.57 0.291-1.317 0.291-2.811v-11.467z"></path>
<path stroke-linejoin="round" stroke-linecap="round" stroke-miterlimit="4" stroke-width="3" d="M2.667 8.267c0-1.493 0-2.24 0.291-2.811 0.256-0.502 0.664-0.91 1.165-1.165 0.57-0.291 1.317-0.291 2.811-0.291h0.533c2.987 0 4.48 0 5.621 0.581 1.004 0.511 1.819 1.327 2.331 2.331 0.581 1.141 0.581 2.634 0.581 5.621v15.467l-0.133-0.2c-0.926-1.389-1.389-2.084-2.001-2.587-0.542-0.445-1.166-0.779-1.837-0.983-0.758-0.23-1.593-0.23-3.262-0.23h-1.833c-1.493 0-2.24 0-2.811-0.291-0.502-0.256-0.91-0.664-1.165-1.165-0.291-0.57-0.291-1.317-0.291-2.811v-11.467z"></path>
</symbol>
<symbol id="close" viewBox="0 0 32 32">
<path stroke-linejoin="round" stroke-linecap="round" stroke-miterlimit="4" stroke-width="2.5" d="M24 8l-16 16"></path>
<path stroke-linejoin="round" stroke-linecap="round" stroke-miterlimit="4" stroke-width="2.5" d="M8 8l16 16"></path>
</symbol>
<symbol id="ukraine" viewBox="0 0 32 32">
<path fill="#ffda44" style="fill: var(--color1, #ffda44)" d="M16 32c8.837 0 16-7.163 16-16s-7.163-16-16-16c-8.837 0-16 7.163-16 16s7.163 16 16 16z"></path>
<path fill="#338af3" style="fill: var(--color2, #338af3)" d="M0 16c0-8.836 7.163-16 16-16s16 7.163 16 16z"></path>
</symbol>
<symbol id="user" viewBox="0 0 32 32">
<path  d="M16 0c-4.108 0-7.451 3.342-7.451 7.451s3.342 7.451 7.451 7.451 7.451-3.342 7.451-7.451-3.342-7.451-7.451-7.451zM16 13.627c-3.405 0-6.176-2.771-6.176-6.176s2.771-6.176 6.176-6.176 6.176 2.771 6.176 6.176-2.77 6.176-6.176 6.176z"></path>
<path d="M26.642 20.721c-2.843-2.843-6.622-4.408-10.642-4.408s-7.799 1.565-10.642 4.408c-2.842 2.843-4.408 6.622-4.408 10.642 0 0.352 0.285 0.637 0.637 0.637h28.825c0.352 0 0.637-0.285 0.637-0.637 0-4.020-1.566-7.799-4.408-10.642zM2.239 30.725c0.334-7.301 6.379-13.138 13.761-13.138s13.426 5.837 13.761 13.138h-27.521z"></path>
<path d="M11.415 28.622h-7.272c-0.352 0-0.637 0.285-0.637 0.637s0.285 0.637 0.637 0.637h7.272c0.352 0 0.637-0.285 0.637-0.637s-0.285-0.637-0.637-0.637z"></path>
<path d="M14.101 28.622h-0.459c-0.352 0-0.637 0.285-0.637 0.637s0.285 0.637 0.637 0.637h0.459c0.352 0 0.637-0.285 0.637-0.637s-0.285-0.637-0.637-0.637z"></path>
</symbol>
</defs>
</svg>
